<?xml version="1.0" encoding="utf-8"?>
<!-- Generator: Adobe Illustrator 16.0.0, SVG Export Plug-In . SVG Version: 6.00 Build 0)  -->
<!DOCTYPE svg PUBLIC "-//W3C//DTD SVG 1.1//EN" "http://www.w3.org/Graphics/SVG/1.1/DTD/svg11.dtd">
<svg version="1.1" id="Layer_1" xmlns="http://www.w3.org/2000/svg" xmlns:xlink="http://www.w3.org/1999/xlink" x="0px" y="0px"
	 width="81.562px" height="47.576px" viewBox="0 0 81.562 47.576" enable-background="new 0 0 81.562 47.576" xml:space="preserve">
<g>
	<path d="M471.337,0v92h92V0H471.337z M559.337,88h-84V4h84V88z"/>
	<path d="M517.464,25.796c2.152,0,3.999-0.77,5.539-2.31s2.31-3.403,2.31-5.588s-0.77-4.048-2.31-5.588S519.617,10,517.464,10
		c-2.186,0-4.049,0.77-5.588,2.31c-1.541,1.54-2.311,3.403-2.311,5.588s0.77,4.048,2.311,5.588
		C513.416,25.026,515.279,25.796,517.464,25.796z"/>
	<path d="M508.771,76.515c-0.662,0.596-1.888,1.043-3.676,1.341v2.435h24.242v-2.435c-1.822-0.364-3.063-0.86-3.727-1.49
		c-0.662-0.629-0.993-2.053-0.993-4.271V33.446h-19.522v2.434c2.053,0.369,3.428,0.927,4.123,1.677
		c0.695,0.753,1.043,2.165,1.043,4.235v29.905C510.261,74.015,509.765,75.621,508.771,76.515z"/>
</g>
<rect x="471.337" y="163.056" width="4" height="92"/>
<rect x="559.337" y="163.056" width="4" height="92"/>
<rect x="471.337" y="251.056" width="92" height="4"/>
<rect x="471.337" y="163.056" width="92" height="4"/>
<g>
	<path d="M505.095,240.914c1.788-0.299,3.014-0.746,3.676-1.342c0.994-0.895,1.49-2.5,1.49-4.818v-29.904
		c0-2.07-0.348-3.481-1.043-4.234c-0.695-0.75-2.07-1.309-4.123-1.678v-2.434h19.522v38.648c0,2.219,0.331,3.643,0.993,4.271
		c0.663,0.629,1.904,1.125,3.727,1.49v2.434h-24.242V240.914z M511.876,175.367c1.539-1.54,3.402-2.311,5.588-2.311
		c2.152,0,3.999,0.771,5.539,2.311s2.31,3.402,2.31,5.588s-0.77,4.049-2.31,5.589s-3.387,2.31-5.539,2.31
		c-2.186,0-4.049-0.77-5.588-2.31c-1.541-1.54-2.311-3.403-2.311-5.589S510.335,176.907,511.876,175.367z"/>
</g>
<rect x="609.337" y="208.667" width="4" height="48"/>
<rect x="697.337" y="208.667" width="4" height="48"/>
<rect x="653.337" y="164.667" width="4" height="79.214"/>
<rect x="637.361" y="203.268" transform="matrix(0.7071 -0.7071 0.7071 0.7071 26.1418 518.8356)" width="4" height="49.188"/>
<rect x="669.376" y="203.116" transform="matrix(0.7071 0.7071 -0.7071 0.7071 357.7196 -408.0138)" width="4" height="49.365"/>
<rect x="609.337" y="252.667" width="92" height="4"/>
<text transform="matrix(1 0 0 1 507.3374 -96.0005)" font-family="'Times-Bold'" font-size="105.9578">i</text>
<g>
	<polygon points="690.244,43.093 687.415,40.264 659.4,68.281 657.337,72 657.337,0 653.337,0 653.337,72 651.32,68.326 
		623.385,40.389 620.556,43.218 655.337,78 	"/>
	<polygon points="697.337,40 697.337,88 613.337,88 613.337,40 609.337,40 609.337,92 701.337,92 701.337,40 	"/>
</g>
<g>
	<path d="M865.218-0.119h-83.762c-25.472,0-46.119,20.648-46.119,46.119s20.647,46.119,46.119,46.119h83.762
		c25.471,0,46.119-20.648,46.119-46.119S890.689-0.119,865.218-0.119z M865.218,88.119h-83.762
		c-23.225,0-42.119-18.895-42.119-42.119c0-23.224,18.895-42.119,42.119-42.119h83.762c23.225,0,42.119,18.895,42.119,42.119
		C907.337,69.224,888.443,88.119,865.218,88.119z"/>
	<circle cx="865.337" cy="46" r="38"/>
</g>
<g>
	<path d="M865.218,292c23.225,0,42.119,18.895,42.119,42.119s-18.895,42.119-42.119,42.119h-83.762
		c-23.225,0-42.119-18.895-42.119-42.119S758.232,292,781.457,292H865.218 M865.218,288h-83.762
		c-25.472,0-46.119,20.648-46.119,46.119s20.647,46.119,46.119,46.119h83.762c25.471,0,46.119-20.648,46.119-46.119
		S890.689,288,865.218,288L865.218,288z"/>
</g>
<circle cx="865.337" cy="334.119" r="38"/>
<g>
	<path d="M1075.218-0.119h-83.762c-25.471,0-46.119,20.648-46.119,46.119c0,25.471,20.648,46.119,46.119,46.119h83.762
		c25.472,0,46.119-20.648,46.119-46.119C1121.337,20.529,1100.69-0.119,1075.218-0.119z M1075.218,88.119h-83.762
		c-23.225,0-42.119-18.895-42.119-42.119c0-23.225,18.895-42.119,42.119-42.119h83.762c23.225,0,42.119,18.895,42.119,42.119
		C1117.337,69.224,1098.443,88.119,1075.218,88.119z"/>
	<circle cx="991.337" cy="46" r="38"/>
</g>
<path d="M865.218,254.238c25.471,0,46.119-20.648,46.119-46.119S890.689,162,865.218,162h-83.762
	c-25.472,0-46.119,20.648-46.119,46.119s20.647,46.119,46.119,46.119H865.218z"/>
<circle fill="#FFFFFF" cx="865.337" cy="208.119" r="42"/>
<g>
	<g>
		<path d="M1182.729,17.2c2.882-2.852,6.327-4.28,10.337-4.28c4.066,0,7.526,1.441,10.38,4.322
			c2.851,2.881,4.277,6.325,4.277,10.337c0,4.066-1.427,7.527-4.277,10.379c-2.854,2.854-6.313,4.277-10.38,4.277
			s-7.528-1.424-10.377-4.277c-2.854-2.852-4.279-6.312-4.279-10.379C1178.41,23.511,1179.849,20.053,1182.729,17.2z
			 M1182.689,72.27c2.849-2.852,6.311-4.277,10.377-4.277s7.526,1.426,10.38,4.277c2.851,2.852,4.277,6.312,4.277,10.38
			c0,4.065-1.427,7.526-4.277,10.377c-2.854,2.851-6.313,4.277-10.38,4.277s-7.528-1.427-10.377-4.277
			c-2.854-2.851-4.279-6.312-4.279-10.377C1178.41,78.582,1179.834,75.122,1182.689,72.27z"/>
		<path d="M1222.758,90.443c4.745-0.169,8.135-0.791,10.168-1.863c3.444-1.81,5.168-5.257,5.168-10.348V-5.804
			c0-5.046-1.638-8.44-4.913-10.181c-1.923-1.064-5.396-1.737-10.423-2.02v-4.405h60.662v4.405
			c-7.06,0.226-11.763,1.21-14.105,2.951c-2.345,1.743-3.517,6.04-3.517,12.893v82.006c0,3.843,1.002,6.387,3.007,7.631
			c2.006,1.243,5.918,1.866,11.735,1.866c10.45,0,19.219-2.301,26.308-6.905c7.088-4.604,13.201-13.568,18.343-26.899h5.082
			l-7.031,39.311h-100.483V90.443z"/>
	</g>
</g>
<g>
	<text transform="matrix(1 0 0 1 1363.3374 73.9995)" font-family="'Times-Bold'" font-size="105.9578">:L</text>
</g>
<g>
	<text transform="matrix(1 0 0 1 1363.3374 277.9995)" font-family="'ammaextra-Regular'" font-size="105.9578">:L</text>
</g>
<g>
	<g>
		<path d="M1198.295,208.876v24.54h-22.958v-24.54H1198.295z M1198.295,286.655v24.54h-22.958v-24.54H1198.295z"/>
		<path d="M1330.301,298.332v12.863h-96.186V168.303h17.614v130.028H1330.301z"/>
	</g>
</g>
<g>
	<polygon points="306.225,79.941 337.337,48.828 368.45,79.941 371.278,77.112 340.166,46 371.278,14.887 368.45,12.059 
		337.337,43.171 306.225,12.059 303.396,14.887 334.509,46 303.396,77.112 	"/>
	<path d="M291.337,0v92h92V0H291.337z M379.337,88h-84V4h84V88z"/>
</g>
<rect x="335.337" y="140" transform="matrix(0.707 0.7072 -0.7072 0.707 230.3892 -184.074)" width="4" height="92"/>
<rect x="335.338" y="139.999" transform="matrix(-0.7071 0.7071 -0.7071 -0.7071 707.3921 78.9866)" width="4" height="92"/>
<g>
	<path d="M291.337,140v92h92v-92H291.337z M379.337,228h-84v-84h84V228z"/>
</g>
<g>
	<path d="M139.212,0v92h92V0H139.212z M227.212,88h-84V4h84V88z"/>
	<path d="M185.337,72c14.336,0,26-11.663,26-26c0-14.336-11.664-26-26-26s-26,11.664-26,26C159.337,60.336,171.001,72,185.337,72z
		 M185.337,24c12.131,0,22,9.869,22,22s-9.869,22-22,22s-22-9.869-22-22S173.207,24,185.337,24z"/>
	<path d="M215.489,23.796c2.152,0,3.999-0.77,5.539-2.311c1.54-1.539,2.31-3.402,2.31-5.588s-0.77-4.049-2.31-5.588
		C219.488,8.769,217.641,8,215.489,8c-2.186,0-4.049,0.77-5.588,2.311c-1.541,1.539-2.311,3.402-2.311,5.588s0.77,4.049,2.311,5.588
		C211.44,23.027,213.303,23.796,215.489,23.796z"/>
</g>
<g>
	<path d="M139.212,134v92h92v-92H139.212z M227.212,222h-84v-84h84V222z"/>
</g>
<circle fill="none" stroke="#000000" stroke-width="4" stroke-miterlimit="10" cx="185.337" cy="180" r="24"/>
<path d="M215.489,157.796c2.152,0,3.999-0.77,5.539-2.311c1.54-1.539,2.31-3.402,2.31-5.588s-0.77-4.049-2.31-5.588
	c-1.54-1.541-3.387-2.311-5.539-2.311c-2.186,0-4.049,0.77-5.588,2.311c-1.541,1.539-2.311,3.402-2.311,5.588
	s0.77,4.049,2.311,5.588C211.44,157.027,213.303,157.796,215.489,157.796z"/>
<g id="ICELAND_1_">
	<g>
		<g>
			<defs>
				<rect id="SVGID_1_" x="-98.019" width="81.562" height="47.579"/>
			</defs>
			<clipPath id="SVGID_2_">
				<use xlink:href="#SVGID_1_"  overflow="visible"/>
			</clipPath>
			<rect x="-98.019" clip-path="url(#SVGID_2_)" fill="#223693" width="81.562" height="47.579"/>
			<rect x="-79.515" clip-path="url(#SVGID_2_)" fill="#FFFFFF" width="10.573" height="47.579"/>
			<rect x="-98.019" y="18.502" clip-path="url(#SVGID_2_)" fill="#FFFFFF" width="81.562" height="10.575"/>
			<rect x="-76.873" clip-path="url(#SVGID_2_)" fill="#C51D32" width="5.29" height="47.579"/>
			<rect x="-98.019" y="21.146" clip-path="url(#SVGID_2_)" fill="#C51D32" width="81.562" height="5.288"/>
		</g>
	</g>
</g>
<g id="UNITED_KINGDOM_1_">
	<g>
		<g>
			<defs>
				<rect id="SVGID_3_" width="81.562" height="47.576"/>
			</defs>
			<clipPath id="SVGID_4_">
				<use xlink:href="#SVGID_3_"  overflow="visible"/>
			</clipPath>
			<rect clip-path="url(#SVGID_4_)" fill="#FFFFFF" width="81.562" height="47.576"/>
			<polygon clip-path="url(#SVGID_4_)" fill="#C51D32" points="54.612,17.201 81.562,2.115 81.562,0 79.704,0 48.976,17.201 			"/>
			<polygon clip-path="url(#SVGID_4_)" fill="#C51D32" points="53.34,31.329 81.562,47.123 81.562,43.966 58.979,31.329 			"/>
			<polygon clip-path="url(#SVGID_4_)" fill="#C51D32" points="0,3.622 24.143,17.201 29.784,17.201 0,0.463 			"/>
			<polygon clip-path="url(#SVGID_4_)" fill="#C51D32" points="28.504,31.329 0,47.3 0,47.576 5.15,47.576 34.148,31.329 			"/>
			<polygon clip-path="url(#SVGID_4_)" fill="#223693" points="75.98,0 47.424,0 47.424,15.993 			"/>
			<polygon clip-path="url(#SVGID_4_)" fill="#223693" points="34.815,0 6.372,0 34.815,15.993 			"/>
			<polygon clip-path="url(#SVGID_4_)" fill="#223693" points="81.562,17.201 81.562,6.287 62.19,17.201 			"/>
			<polygon clip-path="url(#SVGID_4_)" fill="#223693" points="81.562,42.127 81.562,31.329 62.19,31.329 			"/>
			<polygon clip-path="url(#SVGID_4_)" fill="#223693" points="7.986,47.576 34.815,47.576 34.815,32.542 			"/>
			<polygon clip-path="url(#SVGID_4_)" fill="#223693" points="47.424,47.576 74.338,47.576 47.424,32.542 			"/>
			<polygon clip-path="url(#SVGID_4_)" fill="#223693" points="0,31.329 0,42.614 20.046,31.329 			"/>
			<polygon clip-path="url(#SVGID_4_)" fill="#223693" points="0,17.201 20.046,17.201 0,5.9 			"/>
			<polygon clip-path="url(#SVGID_4_)" fill="#C51D32" points="37.337,0 37.337,20.028 0,20.028 0,28.51 37.337,28.51 
				37.337,47.576 44.901,47.576 44.901,28.51 81.562,28.51 81.562,20.028 44.901,20.028 44.901,0 			"/>
		</g>
	</g>
</g>
</svg>
