<?xml version="1.0" encoding="utf-8"?>
<!-- Generator: Adobe Illustrator 16.0.0, SVG Export Plug-In . SVG Version: 6.00 Build 0)  -->
<!DOCTYPE svg PUBLIC "-//W3C//DTD SVG 1.1//EN" "http://www.w3.org/Graphics/SVG/1.1/DTD/svg11.dtd">
<svg version="1.1" id="Layer_1" xmlns="http://www.w3.org/2000/svg" xmlns:xlink="http://www.w3.org/1999/xlink" x="0px" y="0px"
	 width="81.562px" height="47.579px" viewBox="0 0 81.562 47.579" enable-background="new 0 0 81.562 47.579" xml:space="preserve">
<g>
	<path d="M569.356,0v92h92V0H569.356z M657.356,88h-84V4h84V88z"/>
	<path d="M615.483,25.796c2.152,0,3.999-0.77,5.539-2.31s2.31-3.403,2.31-5.588s-0.77-4.048-2.31-5.588S617.635,10,615.483,10
		c-2.186,0-4.049,0.77-5.588,2.31c-1.541,1.54-2.311,3.403-2.311,5.588s0.77,4.048,2.311,5.588
		C611.434,25.026,613.297,25.796,615.483,25.796z"/>
	<path d="M606.79,76.515c-0.662,0.596-1.888,1.043-3.676,1.341v2.435h24.242v-2.435c-1.822-0.364-3.063-0.86-3.727-1.49
		c-0.662-0.629-0.993-2.053-0.993-4.271V33.446h-19.522v2.434c2.053,0.369,3.428,0.927,4.123,1.677
		c0.695,0.753,1.043,2.165,1.043,4.235v29.905C608.28,74.015,607.784,75.621,606.79,76.515z"/>
</g>
<rect x="569.356" y="163.056" width="4" height="92"/>
<rect x="657.356" y="163.056" width="4" height="92"/>
<rect x="569.356" y="251.056" width="92" height="4"/>
<rect x="569.356" y="163.056" width="92" height="4"/>
<g>
	<path d="M603.114,240.914c1.788-0.299,3.014-0.746,3.676-1.342c0.994-0.895,1.49-2.5,1.49-4.818v-29.904
		c0-2.07-0.348-3.481-1.043-4.234c-0.695-0.75-2.07-1.309-4.123-1.678v-2.434h19.522v38.648c0,2.219,0.331,3.643,0.993,4.271
		c0.663,0.629,1.904,1.125,3.727,1.49v2.434h-24.242V240.914z M609.895,175.367c1.539-1.54,3.402-2.311,5.588-2.311
		c2.152,0,3.999,0.771,5.539,2.311s2.31,3.402,2.31,5.588s-0.77,4.049-2.31,5.589s-3.387,2.31-5.539,2.31
		c-2.186,0-4.049-0.77-5.588-2.31c-1.541-1.54-2.311-3.403-2.311-5.589S608.354,176.907,609.895,175.367z"/>
</g>
<rect x="707.356" y="208.667" width="4" height="48"/>
<rect x="795.356" y="208.667" width="4" height="48"/>
<rect x="751.356" y="164.667" width="4" height="79.214"/>
<rect x="735.38" y="203.268" transform="matrix(0.7071 -0.7071 0.7071 0.7071 54.8508 588.1451)" width="4" height="49.188"/>
<rect x="767.395" y="203.116" transform="matrix(0.7071 0.7071 -0.7071 0.7071 386.4286 -477.3234)" width="4" height="49.365"/>
<rect x="707.356" y="252.667" width="92" height="4"/>
<text transform="matrix(1 0 0 1 605.356 -96.0005)" font-family="'Times-Bold'" font-size="105.9578">i</text>
<g>
	<polygon points="788.262,43.093 785.433,40.264 757.418,68.281 755.356,72 755.356,0 751.356,0 751.356,72 749.338,68.326 
		721.404,40.389 718.575,43.218 753.356,78 	"/>
	<polygon points="795.356,40 795.356,88 711.356,88 711.356,40 707.356,40 707.356,92 799.356,92 799.356,40 	"/>
</g>
<g>
	<path d="M963.237-0.119h-83.762c-25.472,0-46.119,20.648-46.119,46.119s20.647,46.119,46.119,46.119h83.762
		c25.471,0,46.119-20.648,46.119-46.119S988.708-0.119,963.237-0.119z M963.237,88.119h-83.762
		c-23.225,0-42.119-18.895-42.119-42.119c0-23.224,18.895-42.119,42.119-42.119h83.762c23.225,0,42.119,18.895,42.119,42.119
		C1005.356,69.224,986.461,88.119,963.237,88.119z"/>
	<circle cx="963.356" cy="46" r="38"/>
</g>
<g>
	<path d="M963.237,292c23.225,0,42.119,18.895,42.119,42.119s-18.895,42.119-42.119,42.119h-83.762
		c-23.225,0-42.119-18.895-42.119-42.119S856.25,292,879.475,292H963.237 M963.237,288h-83.762
		c-25.472,0-46.119,20.648-46.119,46.119s20.647,46.119,46.119,46.119h83.762c25.471,0,46.119-20.648,46.119-46.119
		S988.708,288,963.237,288L963.237,288z"/>
</g>
<circle cx="963.356" cy="334.119" r="38"/>
<g>
	<path d="M1173.237-0.119h-83.762c-25.471,0-46.119,20.648-46.119,46.119c0,25.471,20.648,46.119,46.119,46.119h83.762
		c25.472,0,46.119-20.648,46.119-46.119C1219.356,20.529,1198.708-0.119,1173.237-0.119z M1173.237,88.119h-83.762
		c-23.225,0-42.119-18.895-42.119-42.119c0-23.225,18.895-42.119,42.119-42.119h83.762c23.225,0,42.119,18.895,42.119,42.119
		C1215.356,69.224,1196.461,88.119,1173.237,88.119z"/>
	<circle cx="1089.356" cy="46" r="38"/>
</g>
<path d="M963.237,254.238c25.471,0,46.119-20.648,46.119-46.119S988.708,162,963.237,162h-83.762
	c-25.472,0-46.119,20.648-46.119,46.119s20.647,46.119,46.119,46.119H963.237z"/>
<circle fill="#FFFFFF" cx="963.356" cy="208.119" r="42"/>
<g>
	<g>
		<path d="M1280.748,17.2c2.882-2.852,6.327-4.28,10.337-4.28c4.066,0,7.526,1.441,10.38,4.322
			c2.851,2.881,4.277,6.325,4.277,10.337c0,4.066-1.427,7.527-4.277,10.379c-2.854,2.854-6.313,4.277-10.38,4.277
			s-7.528-1.424-10.377-4.277c-2.854-2.852-4.279-6.312-4.279-10.379C1276.428,23.511,1277.868,20.053,1280.748,17.2z
			 M1280.708,72.27c2.849-2.852,6.311-4.277,10.377-4.277s7.526,1.426,10.38,4.277c2.851,2.852,4.277,6.312,4.277,10.38
			c0,4.065-1.427,7.526-4.277,10.377c-2.854,2.851-6.313,4.277-10.38,4.277s-7.528-1.427-10.377-4.277
			c-2.854-2.851-4.279-6.312-4.279-10.377C1276.428,78.582,1277.853,75.122,1280.708,72.27z"/>
		<path d="M1320.777,90.443c4.745-0.169,8.135-0.791,10.168-1.863c3.444-1.81,5.168-5.257,5.168-10.348V-5.804
			c0-5.046-1.638-8.44-4.913-10.181c-1.923-1.064-5.396-1.737-10.423-2.02v-4.405h60.662v4.405
			c-7.06,0.226-11.763,1.21-14.105,2.951c-2.345,1.743-3.517,6.04-3.517,12.893v82.006c0,3.843,1.002,6.387,3.007,7.631
			c2.006,1.243,5.918,1.866,11.735,1.866c10.45,0,19.219-2.301,26.308-6.905c7.088-4.604,13.201-13.568,18.343-26.899h5.082
			l-7.031,39.311h-100.483V90.443z"/>
	</g>
</g>
<g>
	<text transform="matrix(1 0 0 1 1461.356 73.9995)" font-family="'Times-Bold'" font-size="105.9578">:L</text>
</g>
<g>
	<text transform="matrix(1 0 0 1 1461.356 277.9995)" font-family="'ammaextra-Regular'" font-size="105.9578">:L</text>
</g>
<g>
	<g>
		<path d="M1296.314,208.876v24.54h-22.958v-24.54H1296.314z M1296.314,286.655v24.54h-22.958v-24.54H1296.314z"/>
		<path d="M1428.32,298.332v12.863h-96.186V168.303h17.614v130.028H1428.32z"/>
	</g>
</g>
<g>
	<polygon points="404.243,79.941 435.356,48.828 466.469,79.941 469.297,77.112 438.184,46 469.297,14.887 466.469,12.059 
		435.356,43.171 404.243,12.059 401.415,14.887 432.528,46 401.415,77.112 	"/>
	<path d="M389.356,0v92h92V0H389.356z M477.356,88h-84V4h84V88z"/>
</g>
<rect x="433.356" y="140" transform="matrix(0.707 0.7072 -0.7072 0.707 259.1102 -253.3956)" width="4" height="92"/>
<rect x="433.356" y="139.999" transform="matrix(-0.7071 0.7071 -0.7071 -0.7071 874.7203 9.677)" width="4" height="92"/>
<g>
	<path d="M389.356,140v92h92v-92H389.356z M477.356,228h-84v-84h84V228z"/>
</g>
<g>
	<path d="M237.231,0v92h92V0H237.231z M325.231,88h-84V4h84V88z"/>
	<path d="M283.356,72c14.336,0,26-11.663,26-26c0-14.336-11.664-26-26-26s-26,11.664-26,26C257.356,60.336,269.02,72,283.356,72z
		 M283.356,24c12.131,0,22,9.869,22,22s-9.869,22-22,22s-22-9.869-22-22S271.225,24,283.356,24z"/>
	<path d="M313.507,23.796c2.152,0,3.999-0.77,5.539-2.311c1.54-1.539,2.31-3.402,2.31-5.588s-0.77-4.049-2.31-5.588
		C317.506,8.769,315.66,8,313.507,8c-2.186,0-4.049,0.77-5.588,2.311c-1.541,1.539-2.311,3.402-2.311,5.588s0.77,4.049,2.311,5.588
		C309.458,23.027,311.322,23.796,313.507,23.796z"/>
</g>
<g>
	<path d="M237.231,134v92h92v-92H237.231z M325.231,222h-84v-84h84V222z"/>
</g>
<circle fill="none" stroke="#000000" stroke-width="4" stroke-miterlimit="10" cx="283.356" cy="180" r="24"/>
<path d="M313.507,157.796c2.152,0,3.999-0.77,5.539-2.311c1.54-1.539,2.31-3.402,2.31-5.588s-0.77-4.049-2.31-5.588
	c-1.54-1.541-3.387-2.311-5.539-2.311c-2.186,0-4.049,0.77-5.588,2.311c-1.541,1.539-2.311,3.402-2.311,5.588
	s0.77,4.049,2.311,5.588C309.458,157.027,311.322,157.796,313.507,157.796z"/>
<g id="ICELAND_1_">
	<g>
		<g>
			<defs>
				<rect id="SVGID_1_" width="81.562" height="47.579"/>
			</defs>
			<clipPath id="SVGID_2_">
				<use xlink:href="#SVGID_1_"  overflow="visible"/>
			</clipPath>
			<rect clip-path="url(#SVGID_2_)" fill="#223693" width="81.562" height="47.579"/>
			<rect x="18.504" clip-path="url(#SVGID_2_)" fill="#FFFFFF" width="10.573" height="47.579"/>
			<rect y="18.502" clip-path="url(#SVGID_2_)" fill="#FFFFFF" width="81.562" height="10.575"/>
			<rect x="21.146" clip-path="url(#SVGID_2_)" fill="#C51D32" width="5.29" height="47.579"/>
			<rect y="21.146" clip-path="url(#SVGID_2_)" fill="#C51D32" width="81.562" height="5.288"/>
		</g>
	</g>
</g>
<g id="UNITED_KINGDOM_1_">
	<g>
		<g>
			<defs>
				<rect id="SVGID_3_" x="98.019" width="81.562" height="47.576"/>
			</defs>
			<clipPath id="SVGID_4_">
				<use xlink:href="#SVGID_3_"  overflow="visible"/>
			</clipPath>
			<rect x="98.019" clip-path="url(#SVGID_4_)" fill="#FFFFFF" width="81.562" height="47.576"/>
			<polygon clip-path="url(#SVGID_4_)" fill="#C51D32" points="152.631,17.201 179.581,2.115 179.581,0 177.723,0 146.995,17.201 
							"/>
			<polygon clip-path="url(#SVGID_4_)" fill="#C51D32" points="151.359,31.329 179.581,47.123 179.581,43.966 156.998,31.329 			"/>
			<polygon clip-path="url(#SVGID_4_)" fill="#C51D32" points="98.019,3.622 122.161,17.201 127.802,17.201 98.019,0.463 			"/>
			<polygon clip-path="url(#SVGID_4_)" fill="#C51D32" points="126.523,31.329 98.019,47.3 98.019,47.576 103.168,47.576 
				132.167,31.329 			"/>
			<polygon clip-path="url(#SVGID_4_)" fill="#223693" points="173.999,0 145.442,0 145.442,15.993 			"/>
			<polygon clip-path="url(#SVGID_4_)" fill="#223693" points="132.833,0 104.391,0 132.833,15.993 			"/>
			<polygon clip-path="url(#SVGID_4_)" fill="#223693" points="179.581,17.201 179.581,6.287 160.208,17.201 			"/>
			<polygon clip-path="url(#SVGID_4_)" fill="#223693" points="179.581,42.127 179.581,31.329 160.208,31.329 			"/>
			<polygon clip-path="url(#SVGID_4_)" fill="#223693" points="106.004,47.576 132.833,47.576 132.833,32.542 			"/>
			<polygon clip-path="url(#SVGID_4_)" fill="#223693" points="145.442,47.576 172.357,47.576 145.442,32.542 			"/>
			<polygon clip-path="url(#SVGID_4_)" fill="#223693" points="98.019,31.329 98.019,42.614 118.065,31.329 			"/>
			<polygon clip-path="url(#SVGID_4_)" fill="#223693" points="98.019,17.201 118.065,17.201 98.019,5.9 			"/>
			<polygon clip-path="url(#SVGID_4_)" fill="#C51D32" points="135.356,0 135.356,20.028 98.019,20.028 98.019,28.51 135.356,28.51 
				135.356,47.576 142.919,47.576 142.919,28.51 179.581,28.51 179.581,20.028 142.919,20.028 142.919,0 			"/>
		</g>
	</g>
</g>
</svg>
