<?xml version="1.0" encoding="utf-8"?>
<!-- Generator: Adobe Illustrator 16.0.0, SVG Export Plug-In . SVG Version: 6.00 Build 0)  -->
<!DOCTYPE svg PUBLIC "-//W3C//DTD SVG 1.1//EN" "http://www.w3.org/Graphics/SVG/1.1/DTD/svg11.dtd">
<svg version="1.1" id="Layer_1" xmlns="http://www.w3.org/2000/svg" xmlns:xlink="http://www.w3.org/1999/xlink" x="0px" y="0px"
	 width="70px" height="70px" viewBox="0 0 100 100" enable-background="new 0 0 100 100" xml:space="preserve">
<g>
	<path d="M183.875,4v92h92V4H183.875z M271.875,92h-84V8h84V92z"/>
	<path d="M230.002,29.797c2.152,0,3.999-0.77,5.539-2.31s2.31-3.403,2.31-5.588s-0.77-4.048-2.31-5.588S232.154,14,230.002,14
		c-2.186,0-4.049,0.77-5.588,2.31c-1.541,1.54-2.311,3.403-2.311,5.588s0.77,4.048,2.311,5.588
		C225.953,29.027,227.816,29.797,230.002,29.797z"/>
	<path d="M221.309,80.516c-0.662,0.596-1.888,1.043-3.676,1.341v2.435h24.242v-2.435c-1.822-0.364-3.063-0.86-3.727-1.49
		c-0.662-0.629-0.993-2.053-0.993-4.271V37.447h-19.522v2.434c2.053,0.369,3.428,0.927,4.123,1.677
		c0.695,0.753,1.043,2.165,1.043,4.235v29.905C222.799,78.016,222.303,79.621,221.309,80.516z"/>
</g>
<rect x="183.875" y="167.057" width="4" height="92"/>
<rect x="271.875" y="167.057" width="4" height="92"/>
<rect x="183.875" y="255.057" width="92" height="4"/>
<rect x="183.875" y="167.057" width="92" height="4"/>
<g>
	<path d="M217.633,244.914c1.788-0.299,3.014-0.746,3.676-1.342c0.994-0.895,1.49-2.5,1.49-4.818V208.85
		c0-2.07-0.348-3.481-1.043-4.234c-0.695-0.75-2.07-1.309-4.123-1.678v-2.434h19.522v38.648c0,2.219,0.331,3.643,0.993,4.271
		c0.663,0.629,1.904,1.125,3.727,1.49v2.434h-24.242V244.914z M224.414,179.367c1.539-1.54,3.402-2.311,5.588-2.311
		c2.152,0,3.999,0.771,5.539,2.311s2.31,3.402,2.31,5.588s-0.77,4.049-2.31,5.589s-3.387,2.31-5.539,2.31
		c-2.186,0-4.049-0.77-5.588-2.31c-1.541-1.54-2.311-3.403-2.311-5.589S222.873,180.907,224.414,179.367z"/>
</g>
<rect x="321.875" y="212.667" width="4" height="48"/>
<rect x="409.875" y="212.667" width="4" height="48"/>
<rect x="365.875" y="168.667" width="4" height="79.214"/>
<rect x="349.899" y="207.268" transform="matrix(0.7071 -0.7071 0.7071 0.7071 -60.8828 316.7407)" width="4" height="49.188"/>
<rect x="381.914" y="207.117" transform="matrix(0.7071 0.7071 -0.7071 0.7071 276.3525 -203.5754)" width="4" height="49.365"/>
<rect x="321.875" y="256.667" width="92" height="4"/>
<text transform="matrix(1 0 0 1 219.875 -92)" font-family="'Times-Bold'" font-size="105.9578">i</text>
<g>
	<polygon points="402.781,47.094 399.952,44.264 371.938,72.281 369.875,76 369.875,4 365.875,4 365.875,76 363.857,72.326
		335.923,44.39 333.094,47.219 367.875,82 	"/>
	<polygon points="409.875,44 409.875,92 325.875,92 325.875,44 321.875,44 321.875,96 413.875,96 413.875,44 	"/>
</g>
<g>
	<path d="M577.756,3.881h-83.762c-25.472,0-46.119,20.648-46.119,46.119s20.647,46.119,46.119,46.119h83.762
		c25.471,0,46.119-20.648,46.119-46.119S603.227,3.881,577.756,3.881z M577.756,92.119h-83.762
		c-23.225,0-42.119-18.895-42.119-42.119c0-23.224,18.895-42.119,42.119-42.119h83.762c23.225,0,42.119,18.895,42.119,42.119
		C619.875,73.225,600.98,92.119,577.756,92.119z"/>
	<circle cx="577.875" cy="50" r="38"/>
</g>
<g>
	<path d="M577.756,296c23.225,0,42.119,18.895,42.119,42.119s-18.895,42.119-42.119,42.119h-83.762
		c-23.225,0-42.119-18.895-42.119-42.119S470.77,296,493.994,296H577.756 M577.756,292h-83.762
		c-25.472,0-46.119,20.648-46.119,46.119s20.647,46.119,46.119,46.119h83.762c25.471,0,46.119-20.648,46.119-46.119
		S603.227,292,577.756,292L577.756,292z"/>
</g>
<circle cx="577.875" cy="338.119" r="38"/>
<g>
	<path d="M787.756,3.881h-83.762c-25.471,0-46.119,20.648-46.119,46.119c0,25.471,20.648,46.119,46.119,46.119h83.762
		c25.472,0,46.119-20.648,46.119-46.119C833.875,24.53,813.228,3.881,787.756,3.881z M787.756,92.119h-83.762
		c-23.225,0-42.119-18.895-42.119-42.119c0-23.225,18.895-42.119,42.119-42.119h83.762c23.225,0,42.119,18.895,42.119,42.119
		C829.875,73.225,810.98,92.119,787.756,92.119z"/>
	<circle cx="703.875" cy="50.001" r="38"/>
</g>
<path d="M577.756,258.238c25.471,0,46.119-20.648,46.119-46.119S603.227,166,577.756,166h-83.762
	c-25.472,0-46.119,20.648-46.119,46.119s20.647,46.119,46.119,46.119H577.756z"/>
<circle fill="#FFFFFF" cx="577.875" cy="212.119" r="42"/>
<g>
	<g>
		<path d="M895.267,21.2c2.882-2.852,6.327-4.28,10.337-4.28c4.066,0,7.526,1.441,10.38,4.322c2.851,2.881,4.277,6.325,4.277,10.337
			c0,4.066-1.427,7.527-4.277,10.379c-2.854,2.854-6.313,4.277-10.38,4.277s-7.528-1.424-10.377-4.277
			c-2.854-2.852-4.279-6.312-4.279-10.379C890.947,27.512,892.387,24.054,895.267,21.2z M895.227,76.271
			c2.849-2.852,6.311-4.277,10.377-4.277s7.526,1.426,10.38,4.277c2.851,2.852,4.277,6.312,4.277,10.38
			c0,4.065-1.427,7.526-4.277,10.377c-2.854,2.851-6.313,4.277-10.38,4.277s-7.528-1.427-10.377-4.277
			c-2.854-2.851-4.279-6.312-4.279-10.377C890.947,82.582,892.372,79.122,895.227,76.271z"/>
		<path d="M935.296,94.443c4.745-0.169,8.135-0.791,10.168-1.863c3.444-1.81,5.168-5.257,5.168-10.348V-1.804
			c0-5.046-1.638-8.44-4.913-10.181c-1.923-1.064-5.396-1.737-10.423-2.02v-4.405h60.662v4.405
			c-7.06,0.226-11.763,1.21-14.105,2.951c-2.345,1.743-3.517,6.04-3.517,12.893v82.006c0,3.843,1.002,6.387,3.007,7.631
			c2.006,1.243,5.918,1.866,11.735,1.866c10.45,0,19.219-2.301,26.308-6.905c7.088-4.604,13.201-13.568,18.343-26.899h5.082
			l-7.031,39.311H935.296V94.443z"/>
	</g>
</g>
<g>
	<text transform="matrix(1 0 0 1 1075.875 78)" font-family="'Times-Bold'" font-size="105.9578">:L</text>
</g>
<g>
	<text transform="matrix(1 0 0 1 1075.875 282)" font-family="'ammaextra-Regular'" font-size="105.9578">:L</text>
</g>
<g>
	<g>
		<path d="M910.833,212.877v24.54h-22.958v-24.54H910.833z M910.833,290.655v24.54h-22.958v-24.54H910.833z"/>
		<path d="M1042.839,302.332v12.863h-96.186V172.304h17.614v130.028H1042.839z"/>
	</g>
</g>
<g>
	<polygon points="18.762,83.941 49.875,52.828 80.988,83.941 83.816,81.112 52.703,50 83.816,18.887 80.988,16.059 49.875,47.172
		18.762,16.059 15.934,18.887 47.047,50 15.934,81.112 	"/>
	<path d="M3.875,4v92h92V4H3.875z M91.875,92h-84V8h84V92z"/>
</g>
<rect x="47.875" y="144" transform="matrix(0.707 0.7072 -0.7072 0.707 148.9876 20.3999)" width="4" height="92"/>
<rect x="47.875" y="144" transform="matrix(-0.7071 0.7071 -0.7071 -0.7071 219.4919 289.0825)" width="4" height="92"/>
<g>
	<path d="M3.875,144v92h92v-92H3.875z M91.875,232h-84v-84h84V232z"/>
</g>
<g>
	<path d="M-148.25,4v92h92V4H-148.25z M-60.25,92h-84V8h84V92z"/>
	<path d="M-102.125,76c14.336,0,26-11.663,26-26c0-14.336-11.664-26-26-26s-26,11.664-26,26C-128.125,64.337-116.461,76-102.125,76z
		 M-102.125,28c12.131,0,22,9.869,22,22s-9.869,22-22,22s-22-9.869-22-22S-114.256,28-102.125,28z"/>
	<path d="M-71.974,27.797c2.152,0,3.999-0.77,5.539-2.311c1.54-1.539,2.31-3.402,2.31-5.588s-0.77-4.049-2.31-5.588
		C-67.975,12.77-69.821,12-71.974,12c-2.186,0-4.049,0.77-5.588,2.311c-1.541,1.539-2.311,3.402-2.311,5.588s0.77,4.049,2.311,5.588
		C-76.022,27.027-74.159,27.797-71.974,27.797z"/>
</g>
<g>
	<path d="M-148.25,138v92h92v-92H-148.25z M-60.25,226h-84v-84h84V226z"/>
</g>
<circle fill="none" stroke="#000000" stroke-width="4" stroke-miterlimit="10" cx="-102.125" cy="184" r="24"/>
<path d="M-71.974,161.797c2.152,0,3.999-0.77,5.539-2.311c1.54-1.539,2.31-3.402,2.31-5.588s-0.77-4.049-2.31-5.588
	c-1.54-1.541-3.387-2.311-5.539-2.311c-2.186,0-4.049,0.77-5.588,2.311c-1.541,1.539-2.311,3.402-2.311,5.588
	s0.77,4.049,2.311,5.588C-76.022,161.027-74.159,161.797-71.974,161.797z"/>
</svg>
