<?xml version="1.0" encoding="utf-8"?>
<!-- Generator: Adobe Illustrator 16.0.0, SVG Export Plug-In . SVG Version: 6.00 Build 0)  -->
<!DOCTYPE svg PUBLIC "-//W3C//DTD SVG 1.1//EN" "http://www.w3.org/Graphics/SVG/1.1/DTD/svg11.dtd">
<svg version="1.1" id="Layer_1" xmlns="http://www.w3.org/2000/svg" xmlns:xlink="http://www.w3.org/1999/xlink" x="0px" y="0px"
	 width="70px" height="70px" viewBox="0 0 100 100" enable-background="new 0 0 100 100" xml:space="preserve">

<style>
	svg{cursor:pointer;}
</style>

<g>
	<path style="fill:#000;" d="M4,4v92h92V4H4z M92,92H8V8h84V92z"/>
	<path style="fill:#000;" d="M50.127,29.797c2.152,0,3.999-0.77,5.539-2.31s2.31-3.403,2.31-5.588s-0.77-4.048-2.31-5.588S52.279,14,50.127,14
		c-2.186,0-4.049,0.77-5.588,2.31c-1.541,1.54-2.311,3.403-2.311,5.588s0.77,4.048,2.311,5.588
		C46.078,29.027,47.941,29.797,50.127,29.797z"/>
	<path style="fill:#000;" d="M41.434,80.516c-0.662,0.596-1.888,1.043-3.676,1.341v2.435H62v-2.435c-1.822-0.364-3.063-0.86-3.727-1.49
		c-0.662-0.629-0.993-2.053-0.993-4.271V37.447H37.758v2.434c2.053,0.369,3.428,0.927,4.123,1.677
		c0.695,0.753,1.043,2.165,1.043,4.235v29.905C42.924,78.016,42.428,79.621,41.434,80.516z"/>
</g>
<rect x="4" y="167.057" fill="#ccc" width="4" height="92"/>
<rect x="92" y="167.057" fill="#ccc" width="4" height="92"/>
<rect x="4" y="255.057" fill="#ccc" width="92" height="4"/>
<rect x="4" y="167.057" fill="#ccc" width="92" height="4"/>
<g>
	<path d="M37.758,244.914c1.788-0.299,3.014-0.746,3.676-1.342c0.994-0.895,1.49-2.5,1.49-4.818V208.85
		c0-2.07-0.348-3.481-1.043-4.234c-0.695-0.75-2.07-1.309-4.123-1.678v-2.434H57.28v38.648c0,2.219,0.331,3.643,0.993,4.271
		c0.663,0.629,1.904,1.125,3.727,1.49v2.434H37.758V244.914z M44.539,179.367c1.539-1.54,3.402-2.311,5.588-2.311
		c2.152,0,3.999,0.771,5.539,2.311s2.31,3.402,2.31,5.588s-0.77,4.049-2.31,5.589s-3.387,2.31-5.539,2.31
		c-2.186,0-4.049-0.77-5.588-2.31c-1.541-1.54-2.311-3.403-2.311-5.589S42.998,180.907,44.539,179.367z"/>
</g>
<rect x="142" y="212.667" fill="#ccc" width="4" height="48"/>
<rect x="230" y="212.667" fill="#ccc" width="4" height="48"/>
<rect x="186" y="168.667" fill="#ccc" width="4" height="79.214"/>
<rect x="170.024" y="207.268" transform="matrix(0.7071 -0.7071 0.7071 0.7071 -113.5669 189.5498)" fill="#231F20" width="4" height="49.188"/>
<rect x="202.039" y="207.117" transform="matrix(0.7071 0.7071 -0.7071 0.7071 223.6684 -76.3846)" fill="#231F20" width="4" height="49.365"/>
<rect x="142" y="256.667" fill="#ccc" width="92" height="4"/>
<text transform="matrix(1 0 0 1 -149.0508 100)" font-family="'Times-Bold'" font-size="105.9578">i</text>
<g>
	<polygon points="222.906,47.094 220.077,44.264 192.062,72.281 190,76 190,4 186,4 186,76 183.982,72.326 156.048,44.39
		153.219,47.219 188,82 	"/>
	<polygon points="230,44 230,92 146,92 146,44 142,44 142,96 234,96 234,44 	"/>
</g>
<g>
	<path d="M397.881,3.881h-83.762C288.647,3.881,268,24.529,268,50s20.647,46.119,46.119,46.119h83.762
		C423.352,96.119,444,75.471,444,50S423.352,3.881,397.881,3.881z M397.881,92.119h-83.762C290.895,92.119,272,73.225,272,50
		c0-23.224,18.895-42.119,42.119-42.119h83.762C421.105,7.881,440,26.776,440,50C440,73.225,421.105,92.119,397.881,92.119z"/>
	<circle cx="398" cy="50" r="38"/>
</g>
<g>
	<path fill="#ccc" d="M397.881,296C421.105,296,440,314.895,440,338.119s-18.895,42.119-42.119,42.119h-83.762
		c-23.225,0-42.119-18.895-42.119-42.119S290.895,296,314.119,296H397.881 M397.881,292h-83.762
		C288.647,292,268,312.648,268,338.119s20.647,46.119,46.119,46.119h83.762c25.471,0,46.119-20.648,46.119-46.119
		S423.352,292,397.881,292L397.881,292z"/>
</g>
<circle fill="#ccc" cx="398" cy="338.119" r="38"/>
<g>
	<path d="M607.881,3.881h-83.762C498.648,3.881,478,24.53,478,50c0,25.471,20.648,46.119,46.119,46.119h83.762
		C633.353,96.119,654,75.471,654,50C654,24.53,633.353,3.881,607.881,3.881z M607.881,92.119h-83.762
		C500.895,92.119,482,73.225,482,50c0-23.225,18.895-42.119,42.119-42.119h83.762C631.105,7.881,650,26.776,650,50
		C650,73.225,631.105,92.119,607.881,92.119z"/>
	<circle cx="524" cy="50.001" r="38"/>
</g>
<path fill="#ccc" d="M397.881,258.238c25.471,0,46.119-20.648,46.119-46.119S423.352,166,397.881,166h-83.762
	C288.647,166,268,186.648,268,212.119s20.647,46.119,46.119,46.119H397.881z"/>
<circle fill="#ccc" cx="398" cy="212.119" r="42"/>
</svg>
