<?xml version="1.0" encoding="utf-8"?>
<!-- Generator: Adobe Illustrator 16.0.0, SVG Export Plug-In . SVG Version: 6.00 Build 0)  -->
<!DOCTYPE svg PUBLIC "-//W3C//DTD SVG 1.1//EN" "http://www.w3.org/Graphics/SVG/1.1/DTD/svg11.dtd">
<svg version="1.1" id="Layer_1" xmlns="http://www.w3.org/2000/svg" xmlns:xlink="http://www.w3.org/1999/xlink" x="0px" y="0px"
	 width="70px" height="70px" viewBox="0 0 100 100" enable-background="new 0 0 100 100" xml:space="preserve">

<style>
	svg{cursor:pointer;}
</style>

<script>
	this.addEventListener("click", (e) =>{
		console.log(e)
		console.log(document)
		MyObject.ab();
	})
</script>
<g>
	<path d="M336,4v92h92V4H336z M424,92h-84V8h84V92z"/>
	<path d="M382.127,29.797c2.152,0,3.999-0.77,5.539-2.31s2.31-3.403,2.31-5.588s-0.77-4.048-2.31-5.588S384.279,14,382.127,14
		c-2.186,0-4.049,0.77-5.588,2.31c-1.541,1.54-2.311,3.403-2.311,5.588s0.77,4.048,2.311,5.588
		C378.078,29.027,379.941,29.797,382.127,29.797z"/>
	<path d="M373.434,80.516c-0.662,0.596-1.888,1.043-3.676,1.341v2.435H394v-2.435c-1.822-0.364-3.063-0.86-3.727-1.49
		c-0.662-0.629-0.993-2.053-0.993-4.271V37.447h-19.522v2.434c2.053,0.369,3.428,0.927,4.123,1.677
		c0.695,0.753,1.043,2.165,1.043,4.235v29.905C374.924,78.016,374.428,79.621,373.434,80.516z"/>
</g>
<rect x="336" y="167.057" width="4" height="92"/>
<rect x="424" y="167.057" width="4" height="92"/>
<rect x="336" y="255.057" width="92" height="4"/>
<rect x="336" y="167.057" width="92" height="4"/>
<g>
	<path d="M369.758,244.914c1.788-0.299,3.014-0.746,3.676-1.342c0.994-0.895,1.49-2.5,1.49-4.818V208.85
		c0-2.07-0.348-3.481-1.043-4.234c-0.695-0.75-2.07-1.309-4.123-1.678v-2.434h19.522v38.648c0,2.219,0.331,3.643,0.993,4.271
		c0.663,0.629,1.904,1.125,3.727,1.49v2.434h-24.242V244.914z M376.539,179.367c1.539-1.54,3.402-2.311,5.588-2.311
		c2.152,0,3.999,0.771,5.539,2.311s2.31,3.402,2.31,5.588s-0.77,4.049-2.31,5.589s-3.387,2.31-5.539,2.31
		c-2.186,0-4.049-0.77-5.588-2.31c-1.541-1.54-2.311-3.403-2.311-5.589S374.998,180.907,376.539,179.367z"/>
</g>
<rect x="474" y="212.667" width="4" height="48"/>
<rect x="562" y="212.667" width="4" height="48"/>
<rect x="518" y="168.667" width="4" height="79.214"/>
<rect x="502.024" y="207.268" transform="matrix(0.7071 -0.7071 0.7071 0.7071 -16.3264 424.3093)" width="4" height="49.188"/>
<rect x="534.039" y="207.117" transform="matrix(0.7071 0.7071 -0.7071 0.7071 320.9089 -311.144)" width="4" height="49.365"/>
<rect x="474" y="256.667" width="92" height="4"/>
<text transform="matrix(1 0 0 1 372 -92)" font-family="'Times-Bold'" font-size="105.9578">i</text>
<g>
	<polygon points="554.906,47.094 552.077,44.264 524.062,72.281 522,76 522,4 518,4 518,76 515.982,72.326 488.048,44.39
		485.219,47.219 520,82 	"/>
	<polygon points="562,44 562,92 478,92 478,44 474,44 474,96 566,96 566,44 	"/>
</g>
<g>
	<path d="M729.881,3.881h-83.762C620.647,3.881,600,24.529,600,50s20.647,46.119,46.119,46.119h83.762
		C755.352,96.119,776,75.471,776,50S755.352,3.881,729.881,3.881z M729.881,92.119h-83.762C622.895,92.119,604,73.225,604,50
		c0-23.224,18.895-42.119,42.119-42.119h83.762C753.105,7.881,772,26.776,772,50C772,73.225,753.105,92.119,729.881,92.119z"/>
	<circle cx="730" cy="50" r="38"/>
</g>
<g>
	<path d="M729.881,296C753.105,296,772,314.895,772,338.119s-18.895,42.119-42.119,42.119h-83.762
		c-23.225,0-42.119-18.895-42.119-42.119S622.895,296,646.119,296H729.881 M729.881,292h-83.762
		C620.647,292,600,312.648,600,338.119s20.647,46.119,46.119,46.119h83.762c25.471,0,46.119-20.648,46.119-46.119
		S755.352,292,729.881,292L729.881,292z"/>
</g>
<circle cx="730" cy="338.119" r="38"/>
<g>
	<path d="M939.881,3.881h-83.762C830.648,3.881,810,24.53,810,50c0,25.471,20.648,46.119,46.119,46.119h83.762
		C965.353,96.119,986,75.471,986,50C986,24.53,965.353,3.881,939.881,3.881z M939.881,92.119h-83.762
		C832.895,92.119,814,73.225,814,50c0-23.225,18.895-42.119,42.119-42.119h83.762C963.105,7.881,982,26.776,982,50
		C982,73.225,963.105,92.119,939.881,92.119z"/>
	<circle cx="856" cy="50.001" r="38"/>
</g>
<path d="M729.881,258.238c25.471,0,46.119-20.648,46.119-46.119S755.352,166,729.881,166h-83.762
	C620.647,166,600,186.648,600,212.119s20.647,46.119,46.119,46.119H729.881z"/>
<circle fill="#FFFFFF" cx="730" cy="212.119" r="42"/>
<g>
	<g>
		<path d="M1047.392,21.2c2.882-2.852,6.327-4.28,10.337-4.28c4.066,0,7.526,1.441,10.38,4.322
			c2.851,2.881,4.277,6.325,4.277,10.337c0,4.066-1.427,7.527-4.277,10.379c-2.854,2.854-6.313,4.277-10.38,4.277
			s-7.528-1.424-10.377-4.277c-2.854-2.852-4.279-6.312-4.279-10.379C1043.072,27.512,1044.512,24.054,1047.392,21.2z
			 M1047.352,76.271c2.849-2.852,6.311-4.277,10.377-4.277s7.526,1.426,10.38,4.277c2.851,2.852,4.277,6.312,4.277,10.38
			c0,4.065-1.427,7.526-4.277,10.377c-2.854,2.851-6.313,4.277-10.38,4.277s-7.528-1.427-10.377-4.277
			c-2.854-2.851-4.279-6.312-4.279-10.377C1043.072,82.582,1044.497,79.122,1047.352,76.271z"/>
		<path d="M1087.421,94.443c4.745-0.169,8.135-0.791,10.168-1.863c3.444-1.81,5.168-5.257,5.168-10.348V-1.804
			c0-5.046-1.638-8.44-4.913-10.181c-1.923-1.064-5.396-1.737-10.423-2.02v-4.405h60.662v4.405
			c-7.06,0.226-11.763,1.21-14.105,2.951c-2.345,1.743-3.517,6.04-3.517,12.893v82.006c0,3.843,1.002,6.387,3.007,7.631
			c2.006,1.243,5.918,1.866,11.735,1.866c10.45,0,19.219-2.301,26.308-6.905c7.088-4.604,13.201-13.568,18.343-26.899h5.082
			l-7.031,39.311h-100.483V94.443z"/>
	</g>
</g>
<g>
	<text transform="matrix(1 0 0 1 1228 78)" font-family="'Times-Bold'" font-size="105.9578">:L</text>
</g>
<g>
	<text transform="matrix(1 0 0 1 1228 282)" font-family="'ammaextra-Regular'" font-size="105.9578">:L</text>
</g>
<g>
	<g>
		<path d="M1062.958,212.877v24.54H1040v-24.54H1062.958z M1062.958,290.655v24.54H1040v-24.54H1062.958z"/>
		<path d="M1194.964,302.332v12.863h-96.186V172.304h17.614v130.028H1194.964z"/>
	</g>
</g>
<g>
	<polygon points="170.887,83.941 202,52.828 233.113,83.941 235.941,81.112 204.828,50 235.941,18.887 233.113,16.059 202,47.172
		170.887,16.059 168.059,18.887 199.172,50 168.059,81.112 	"/>
	<path d="M156,4v92h92V4H156z M244,92h-84V8h84V92z"/>
</g>
<rect x="200" y="144" transform="matrix(0.707 0.7072 -0.7072 0.707 193.5626 -87.1873)" width="4" height="92"/>
<rect x="200" y="144" transform="matrix(-0.7071 0.7071 -0.7071 -0.7071 479.1855 181.5139)" width="4" height="92"/>
<g>
	<path d="M156,144v92h92v-92H156z M244,232h-84v-84h84V232z"/>
</g>
<g>
	<path d="M3.875,4v92h92V4H3.875z M91.875,92h-84V8h84V92z"/>
	<path d="M50,76c14.336,0,26-11.663,26-26c0-14.336-11.664-26-26-26S24,35.664,24,50C24,64.337,35.664,76,50,76z M50,28
		c12.131,0,22,9.869,22,22s-9.869,22-22,22s-22-9.869-22-22S37.869,28,50,28z"/>
	<path d="M80.151,27.797c2.152,0,3.999-0.77,5.539-2.311c1.54-1.539,2.31-3.402,2.31-5.588s-0.77-4.049-2.31-5.588
		C84.15,12.77,82.304,12,80.151,12c-2.186,0-4.049,0.77-5.588,2.311c-1.541,1.539-2.311,3.402-2.311,5.588s0.77,4.049,2.311,5.588
		C76.103,27.027,77.966,27.797,80.151,27.797z"/>
</g>
<g>
	<path d="M3.875,138v92h92v-92H3.875z M91.875,226h-84v-84h84V226z"/>
</g>
<circle fill="none" stroke="#000000" stroke-width="4" stroke-miterlimit="10" cx="50" cy="184" r="24"/>
<path d="M80.151,161.797c2.152,0,3.999-0.77,5.539-2.311c1.54-1.539,2.31-3.402,2.31-5.588s-0.77-4.049-2.31-5.588
	C84.15,146.77,82.304,146,80.151,146c-2.186,0-4.049,0.77-5.588,2.311c-1.541,1.539-2.311,3.402-2.311,5.588s0.77,4.049,2.311,5.588
	C76.103,161.027,77.966,161.797,80.151,161.797z"/>
</svg>
