<?xml version="1.0" encoding="utf-8"?>
<!-- Generator: Adobe Illustrator 16.0.0, SVG Export Plug-In . SVG Version: 6.00 Build 0)  -->
<!DOCTYPE svg PUBLIC "-//W3C//DTD SVG 1.1//EN" "http://www.w3.org/Graphics/SVG/1.1/DTD/svg11.dtd">
<svg version="1.1" id="Layer_1" xmlns="http://www.w3.org/2000/svg" xmlns:xlink="http://www.w3.org/1999/xlink" x="0px" y="0px"
	 width="70px" height="70px" viewBox="0 0 100 100" enable-background="new 0 0 100 100" xml:space="preserve">

<style>
	svg{cursor:pointer;}
</style>
<g>
	<path d="M-134,4v92h92V4H-134z M-46,92h-84V8h84V92z"/>
	<path d="M-87.873,29.797c2.152,0,3.999-0.77,5.539-2.31s2.31-3.403,2.31-5.588s-0.77-4.048-2.31-5.588S-85.721,14-87.873,14
		c-2.186,0-4.049,0.77-5.588,2.31c-1.541,1.54-2.311,3.403-2.311,5.588s0.77,4.048,2.311,5.588
		C-91.922,29.027-90.059,29.797-87.873,29.797z"/>
	<path d="M-96.566,80.516c-0.662,0.596-1.888,1.043-3.676,1.341v2.435H-76v-2.435c-1.822-0.364-3.063-0.86-3.727-1.49
		c-0.662-0.629-0.993-2.053-0.993-4.271V37.447h-19.522v2.434c2.053,0.369,3.428,0.927,4.123,1.677
		c0.695,0.753,1.043,2.165,1.043,4.235v29.905C-95.076,78.016-95.572,79.621-96.566,80.516z"/>
</g>
<rect x="-134" y="167.057" fill="#231F20" width="4" height="92"/>
<rect x="-46" y="167.057" fill="#231F20" width="4" height="92"/>
<rect x="-134" y="255.057" fill="#231F20" width="92" height="4"/>
<rect x="-134" y="167.057" fill="#231F20" width="92" height="4"/>
<g>
	<path d="M-100.242,244.914c1.788-0.299,3.014-0.746,3.676-1.342c0.994-0.895,1.49-2.5,1.49-4.818V208.85
		c0-2.07-0.348-3.481-1.043-4.234c-0.695-0.75-2.07-1.309-4.123-1.678v-2.434h19.522v38.648c0,2.219,0.331,3.643,0.993,4.271
		c0.663,0.629,1.904,1.125,3.727,1.49v2.434h-24.242V244.914z M-93.461,179.367c1.539-1.54,3.402-2.311,5.588-2.311
		c2.152,0,3.999,0.771,5.539,2.311s2.31,3.402,2.31,5.588s-0.77,4.049-2.31,5.589s-3.387,2.31-5.539,2.31
		c-2.186,0-4.049-0.77-5.588-2.31c-1.541-1.54-2.311-3.403-2.311-5.589S-95.002,180.907-93.461,179.367z"/>
</g>
<rect x="4" y="212.667" fill="#231F20" width="4" height="48"/>
<rect x="92" y="212.667" fill="#231F20" width="4" height="48"/>
<rect x="48" y="168.667" fill="#231F20" width="4" height="79.214"/>
<rect x="32.024" y="207.268" transform="matrix(0.7071 -0.7071 0.7071 0.7071 -153.9862 91.9691)" fill="#231F20" width="4" height="49.188"/>
<rect x="64.039" y="207.117" transform="matrix(0.7071 0.7071 -0.7071 0.7071 183.2491 21.1961)" fill="#231F20" width="4" height="49.365"/>
<rect x="4" y="256.667" fill="#231F20" width="92" height="4"/>
<text transform="matrix(1 0 0 1 -287.0508 100)" font-family="'Times-Bold'" font-size="105.9578">i</text>
<g>
	<polygon points="84.906,47.094 82.077,44.264 54.062,72.281 52,76 52,4 48,4 48,76 45.982,72.326 18.048,44.39 15.219,47.219
		50,82 	"/>
	<polygon points="92,44 92,92 8,92 8,44 4,44 4,96 96,96 96,44 	"/>
</g>
<g>
	<path d="M259.881,3.881h-83.762C150.647,3.881,130,24.529,130,50s20.647,46.119,46.119,46.119h83.762
		C285.352,96.119,306,75.471,306,50S285.352,3.881,259.881,3.881z M259.881,92.119h-83.762C152.895,92.119,134,73.225,134,50
		c0-23.224,18.895-42.119,42.119-42.119h83.762C283.105,7.881,302,26.776,302,50C302,73.225,283.105,92.119,259.881,92.119z"/>
	<circle cx="260" cy="50" r="38"/>
</g>
<g>
	<path fill="#231F20" d="M259.881,296C283.105,296,302,314.895,302,338.119s-18.895,42.119-42.119,42.119h-83.762
		c-23.225,0-42.119-18.895-42.119-42.119S152.895,296,176.119,296H259.881 M259.881,292h-83.762
		C150.647,292,130,312.648,130,338.119s20.647,46.119,46.119,46.119h83.762c25.471,0,46.119-20.648,46.119-46.119
		S285.352,292,259.881,292L259.881,292z"/>
</g>
<circle fill="#231F20" cx="260" cy="338.119" r="38"/>
<g>
	<path d="M469.881,3.881h-83.762C360.648,3.881,340,24.53,340,50c0,25.471,20.648,46.119,46.119,46.119h83.762
		C495.353,96.119,516,75.471,516,50C516,24.53,495.353,3.881,469.881,3.881z M469.881,92.119h-83.762
		C362.895,92.119,344,73.225,344,50c0-23.225,18.895-42.119,42.119-42.119h83.762C493.105,7.881,512,26.776,512,50
		C512,73.225,493.105,92.119,469.881,92.119z"/>
	<circle cx="386" cy="50.001" r="38"/>
</g>
<path fill="#231F20" d="M259.881,258.238c25.471,0,46.119-20.648,46.119-46.119S285.352,166,259.881,166h-83.762
	C150.647,166,130,186.648,130,212.119s20.647,46.119,46.119,46.119H259.881z"/>
<circle fill="#FFFFFF" cx="260" cy="212.119" r="42"/>
</svg>
