<svg width="800" height="600" xmlns="http://www.w3.org/2000/svg">
 <!-- Created with Method Draw - http://github.com/duopixel/Method-Draw/ -->
 <g>
  <title>background</title>
  <rect fill="#fff" id="canvas_background" height="602" width="802" y="-1" x="-1"/>
  <g display="none" overflow="visible" y="0" x="0" height="100%" width="100%" id="canvasGrid">
   <rect fill="url(#gridpattern)" stroke-width="0" y="0" x="0" height="100%" width="100%"/>
  </g>
 </g>
 <g>
  <title>Layer 1</title>
  <path d="m221.89999,72.44375c2,0 7,0 17,0c11,0 23.01614,-0.64758 36,0c20.0748,1.00124 30,2 40,2c15,0 26,0 33,0c7,0 18,0 25,0c7,0 14.01489,-0.59776 26,0c10.03738,0.50062 17.86484,2.99594 29,4c4.9798,0.44903 14,0 26,0c11,0 17,0 25,0c6,0 14,0 19,0c3,0 8,0 12,0c6.00003,0 12.00003,0 18.00003,0c1,0 2,0 2,0c0,2 0,2 0,3c0,1 -0.12335,5.01311 1,15c0.90118,8.01173 2.9986,16.92129 4,36.00001c0.52417,9.98625 2.99023,17.79025 4,25c1.24829,8.91301 0,27 0,35c0,7 0,16 0,23c0,7 0,16 0,25c0,8 0,17 0,27c0,6 0,11 0,18c0,13 0,22 0,29c0,5 0,14 0,20c0,8 0,12 0,19c0,3 0.50708,6.23401 -2,11c-1.67859,3.19098 -3.14429,5.93414 -4,8c-2.42029,5.84314 -3.19409,10.88855 -6,16c-2.15204,3.92029 -4,9 -7,12c-2,2 -7.18604,6.69254 -9.00003,8c-3.4418,2.48071 -6.41885,4.41885 -8,6c-1.58115,1.58115 -4,3 -5,5c-1,2 -2.70547,4.34619 -5,6c-1.814,1.30746 -2,3 -4,4c-2,1 -3.61731,3.07611 -4,4c-1.0824,2.61313 -4,3 -7,5c-3,2 -5.94342,4.14774 -11,6c-2.96933,1.08768 -5.93414,3.14429 -8,4c-5.84314,2.42029 -9.86194,3.47546 -16,5c-5.90338,1.46625 -13,4 -16,4c-3,0 -10,0 -15,0c-6,0 -12,0 -19,0c-3,0 -6.05414,0.56732 -9,0c-5.28799,-1.01837 -9.92035,-3.16797 -14,-5c-4.91257,-2.20605 -11.80566,-4.44839 -16,-6c-3.867,-1.43048 -10.03873,-2.51944 -13,-3c-3.12143,-0.50653 -6,-1 -8,-1c-2,0 -4.94342,-2.14774 -10,-4c-2.96933,-1.08768 -6,-2 -9,-5c-5,-5 -8.22272,-7.724 -12,-11c-3.20511,-2.77979 -7.79489,-7.22021 -11,-10c-3.77728,-3.276 -6,-6 -9,-9c-1,-1 -2.16797,-2.92035 -4,-7c-2.20605,-4.91257 -4,-10 -5,-14c-1,-4 -2.14429,-6.93414 -3,-9c-1.21014,-2.92157 -2,-6 -4,-9c-2,-3 -3.9725,-7.64749 -5,-12c-0.68927,-2.91974 -1.25195,-5.88049 -4,-12c-2.20607,-4.91257 -2.33328,-7.86563 -3,-10c-2.10837,-6.74942 -0.85124,-12.13376 -2,-17c-1.02748,-4.35251 -3.49623,-11.90778 -4,-16c-0.61092,-4.96252 0,-10 0,-13c0,-3 0,-6 0,-9c0,-1 0,-3 0,-6c0,-2 -1,-3 -1,-3c0,-2 -0.49623,-2.90778 -1,-7c-0.24437,-1.98502 -1,-6 -1,-7l0,0" id="svg_4" fill-opacity="null" stroke-opacity="null" stroke-width="1.5" stroke="#000" fill="none"/>
  <path d="m331.89999,128.44376c0,0 0,0 5,0c14,0 28.09665,-1.38701 38,0c7.20975,1.00977 12,3 17,4c5,1 16,1 20,1c4,0 8,0 11,0c2,0 5,0 9,0c3,0 7,-1 11,-1c1,0 2,0 2,0c1,0 2,0 3,0c1,0 3,0 4,0c2,0 3,0 5,0c0,0 2,0 4,0c1,0 2,0 4,0c2,0 3,0 3,0c0,1 0,2 0,4c0,1 0,4 0,7c0,7 0,14 0,24c0,8 -0.61093,16.03746 0,21c0.50378,4.09221 1,11 1,16c0,5 0,9 0,14c0,2 0,3 0,5c0,2 0.54135,5.70267 2,9c1.66803,3.77065 2,7 2,10c0,4 0.60583,11.01947 1,15c0.50244,5.07422 2,10 2,17c0,5 0,10 0,16c0,4 0.28357,6.01007 0,10c-0.50125,7.05328 -0.34518,9.17697 -2,14c-0.72568,2.11505 -3.41589,7.76108 -5,11c-1.38934,2.84073 -2.75531,7.13202 -5,11c-1.80972,3.11847 -3.32144,5.80902 -5,9c-2.50705,4.76599 -4.52011,8.40967 -8,12c-4.45642,4.59787 -6,6 -7,7c-2,2 -3,3 -4,4c-1,1 -4.31,2.33749 -7,4c-2.40601,1.487 -3.82376,4.48627 -6,5c-0.97324,0.22977 -2.186,0.69254 -4,2c-3.4418,2.48071 -7.61481,5.5979 -12,8c-7.49341,4.10474 -11.03873,3.51944 -14,4c-3.12143,0.50653 -6,1 -10,1c-2,0 -6,0 -9,0c-1,0 -3,0 -4,0c-1,0 -5.51929,-1.5582 -8,-5c-1.30746,-1.814 -3,-2 -5,-2c0,0 -0.41885,-2.41885 -2,-4c-1.58115,-1.58115 -3,-2 -4,-3c0,0 -1.89737,0.43866 -4,-5c-1.83868,-4.75598 -2.78986,-10.07843 -4,-13c-1.71143,-4.13171 -1.71021,-6.04291 -2,-7c-1.04483,-3.45084 -2,-5 -2,-6c0,-2 -1,-5 -1,-5c0,-1 -1,-4 -1,-7c0,0 -0.49347,-0.87857 -1,-4c-0.48056,-2.96127 1.14877,-4.13376 0,-9c-0.51373,-2.17624 -2,-5 -2,-6c0,-1 0.22977,-3.02676 0,-4c-0.51373,-2.17624 -1.08099,-4.10699 -2,-8c-0.51373,-2.17624 -1,-3 -1,-6c0,-3 -1,-7 -1,-10c0,-4 0,-5 0,-6c0,-1 -2,-5 -2,-8c0,-3 -1,-6 -1,-8c0,-1 1.14804,-4.22836 0,-7c-0.5412,-1.30655 -1.49347,-2.87857 -2,-6c-0.16019,-0.98709 0,-2 0,-3l0,-3l0,-1" id="svg_5" fill-opacity="null" stroke-opacity="null" stroke-width="1.5" stroke="#000" fill="none"/>
 </g>
</svg>